<svg width="24" height="24" viewBox="0 0 24 24" fill="none" xmlns="http://www.w3.org/2000/svg">
<path d="M11.252 10.3594V3.14062C11.252 2.20312 12.002 1.45312 12.9395 1.45312C13.877 1.45312 14.627 2.20312 14.627 3.14062V10.3594" stroke="white" stroke-miterlimit="10" stroke-linecap="round" stroke-linejoin="round"/>
<path d="M11.2509 10.3593V4.17187C11.2509 3.23437 10.5009 2.48438 9.56347 2.48438C8.62597 2.48438 7.87596 3.23437 7.87596 4.17187V14.5781L5.25096 13.0781C4.50096 12.7968 3.56346 12.9843 3.00096 13.6406C2.43846 14.2968 2.53222 15.3281 3.09472 15.9843L6.65721 20.0156C8.06346 21.6093 10.1259 22.5468 12.2822 22.5468H15.7509C18.8447 22.5468 21.3759 20.0156 21.3759 16.9218V6.3281C21.3759 5.3906 20.6259 4.64061 19.6884 4.64061C18.7509 4.64061 18.0009 5.3906 18.0009 6.3281V10.3593" stroke="white" stroke-miterlimit="10" stroke-linecap="round" stroke-linejoin="round"/>
<path d="M18.002 10.3593V4.17188C18.002 3.23438 17.252 2.48438 16.3145 2.48438C15.377 2.48438 14.627 3.23438 14.627 4.17188V10.3593" stroke="white" stroke-miterlimit="10" stroke-linecap="round" stroke-linejoin="round"/>
</svg>
