<svg width="24" height="24" viewBox="0 0 24 24" fill="none" xmlns="http://www.w3.org/2000/svg">
<path d="M11.2773 3.79688C11.2773 4.41848 11.5243 5.01462 11.9638 5.45416C12.4034 5.89369 12.9995 6.14062 13.6211 6.14062C14.2427 6.14062 14.8388 5.89369 15.2784 5.45416C15.7179 5.01462 15.9648 4.41848 15.9648 3.79688C15.9648 3.17527 15.7179 2.57913 15.2784 2.13959C14.8388 1.70006 14.2427 1.45313 13.6211 1.45312C12.9995 1.45313 12.4034 1.70006 11.9638 2.13959C11.5243 2.57913 11.2773 3.17527 11.2773 3.79688Z" stroke="white" stroke-linecap="round" stroke-linejoin="round"/>
<path d="M19.3073 5.23041C19.1262 5.19421 18.9398 5.19403 18.7586 5.22989C18.5774 5.26575 18.4051 5.33694 18.2514 5.43941C18.0978 5.54187 17.9658 5.6736 17.8631 5.82707C17.7603 5.98054 17.6888 6.15275 17.6526 6.33385C17.6221 6.7088 17.513 7.07313 17.3326 7.40324C17.1522 7.73336 16.9045 8.02188 16.6054 8.2501C15.9492 8.62979 14.8392 8.57073 13.3833 8.08416C9.24513 6.70791 6.6267 6.70885 4.64857 10.6679C4.48173 11.0016 4.45428 11.3879 4.57225 11.7418C4.69022 12.0957 4.94396 12.3883 5.27763 12.5551C5.61131 12.7219 5.99759 12.7494 6.35151 12.6314C6.70543 12.5134 6.99798 12.2597 7.16482 11.926C7.89607 10.4626 8.27951 9.70416 10.6336 10.2245L9.29295 13.576V13.5873C9.26096 13.6667 9.23648 13.7489 9.21982 13.8329V13.8414V13.8507L8.99107 14.9532C8.8353 15.738 8.45016 16.4589 7.8844 17.0247C7.31865 17.5904 6.59773 17.9756 5.81295 18.1314L4.69357 18.3554C4.35126 18.4237 4.04658 18.6169 3.8388 18.8974C3.63101 19.1779 3.53496 19.5256 3.56934 19.873C3.60371 20.2203 3.76605 20.5425 4.02478 20.7768C4.28351 21.0111 4.62013 21.1408 4.9692 21.1407C5.0636 21.1406 5.15777 21.1315 5.25045 21.1135L6.36888 20.8885C7.54123 20.6552 8.63189 20.1185 9.53205 19.3321C10.4322 18.5456 11.1104 17.5368 11.4989 16.4064L11.917 16.6876C12.4095 17.015 12.8243 17.4464 13.1321 17.9515C13.4398 18.4565 13.6331 19.0229 13.6983 19.6107L13.8858 21.2982C13.9244 21.6415 14.0881 21.9585 14.3456 22.1888C14.603 22.4191 14.9363 22.5466 15.2817 22.547C15.334 22.547 15.3863 22.5442 15.4383 22.5385C15.6218 22.5182 15.7996 22.462 15.9614 22.373C16.1232 22.284 16.2659 22.1639 16.3814 22.0198C16.4968 21.8756 16.5827 21.7101 16.6342 21.5327C16.6857 21.3554 16.7017 21.1696 16.6814 20.986L16.4939 19.2985C16.3842 18.3022 16.0572 17.3421 15.536 16.486C15.0147 15.6299 14.3118 14.8986 13.477 14.3439L12.3239 13.5751L13.3486 11.011C14.1097 11.2673 14.9138 11.3708 15.715 11.3156C16.5162 11.2604 17.2986 11.0476 18.0173 10.6895C18.6692 10.2685 19.2211 9.71011 19.6345 9.05344C20.048 8.39678 20.3129 7.65769 20.4108 6.88791C20.4474 6.70661 20.4479 6.51986 20.4122 6.33837C20.3765 6.15688 20.3054 5.9842 20.2029 5.83023C20.1004 5.67627 19.9686 5.54403 19.8149 5.44111C19.6612 5.33818 19.4887 5.26658 19.3073 5.23041Z" stroke="white" stroke-linecap="round" stroke-linejoin="round"/>
</svg>
