<svg width="22" height="24" viewBox="0 0 22 24" fill="none" xmlns="http://www.w3.org/2000/svg">
<path d="M6.81836 4.5C6.81836 3.30653 7.24936 2.16193 8.01656 1.31802C8.78375 0.474106 9.82429 0 10.9093 0C11.9942 0 13.0348 0.474106 13.802 1.31802C14.5692 2.16193 15.0002 3.30653 15.0002 4.5V12C15.0002 13.1935 14.5692 14.3381 13.802 15.182C13.0348 16.0259 11.9942 16.5 10.9093 16.5C9.82429 16.5 8.78375 16.0259 8.01656 15.182C7.24936 14.3381 6.81836 13.1935 6.81836 12V4.5Z" fill="white"/>
<path d="M4.77264 9.75C4.95347 9.75 5.12689 9.82902 5.25476 9.96967C5.38262 10.1103 5.45446 10.3011 5.45446 10.5V12C5.45446 13.5913 6.02913 15.1174 7.05206 16.2426C8.07498 17.3679 9.46237 18 10.909 18C12.3556 18 13.743 17.3679 14.7659 16.2426C15.7889 15.1174 16.3635 13.5913 16.3635 12V10.5C16.3635 10.3011 16.4354 10.1103 16.5632 9.96967C16.6911 9.82902 16.8645 9.75 17.0454 9.75C17.2262 9.75 17.3996 9.82902 17.5275 9.96967C17.6554 10.1103 17.7272 10.3011 17.7272 10.5V12C17.7272 13.8593 17.0994 15.6523 15.9655 17.0312C14.8317 18.4101 13.2726 19.2766 11.5908 19.4625V22.5H15.6817C15.8626 22.5 16.036 22.579 16.1638 22.7197C16.2917 22.8603 16.3635 23.0511 16.3635 23.25C16.3635 23.4489 16.2917 23.6397 16.1638 23.7803C16.036 23.921 15.8626 24 15.6817 24H6.13627C5.95545 24 5.78202 23.921 5.65416 23.7803C5.52629 23.6397 5.45446 23.4489 5.45446 23.25C5.45446 23.0511 5.52629 22.8603 5.65416 22.7197C5.78202 22.579 5.95545 22.5 6.13627 22.5H10.2272V19.4625C8.54539 19.2766 6.98633 18.4101 5.85247 17.0312C4.71862 15.6523 4.0908 13.8593 4.09082 12V10.5C4.09082 10.3011 4.16265 10.1103 4.29052 9.96967C4.41839 9.82902 4.59181 9.75 4.77264 9.75Z" fill="white"/>
</svg>
