<svg width="21" height="22" viewBox="0 0 21 22" fill="none" xmlns="http://www.w3.org/2000/svg">
<path d="M17.3281 15.7453C16.8945 14.9984 16.2499 12.8852 16.2499 10.125C16.2499 8.4674 15.5915 6.87769 14.4194 5.70558C13.2473 4.53348 11.6576 3.875 9.99995 3.875C8.34235 3.875 6.75263 4.53348 5.58053 5.70558C4.40843 6.87769 3.74995 8.4674 3.74995 10.125C3.74995 12.8859 3.10464 14.9984 2.67104 15.7453C2.56032 15.9352 2.50162 16.1509 2.50086 16.3707C2.50011 16.5905 2.55733 16.8066 2.66674 16.9973C2.77616 17.1879 2.93392 17.3463 3.12409 17.4565C3.31427 17.5667 3.53015 17.6248 3.74995 17.625H6.93823C7.08243 18.3306 7.46591 18.9647 8.0238 19.4201C8.5817 19.8756 9.27977 20.1243 9.99995 20.1243C10.7201 20.1243 11.4182 19.8756 11.9761 19.4201C12.534 18.9647 12.9175 18.3306 13.0617 17.625H16.2499C16.4697 17.6247 16.6855 17.5665 16.8755 17.4562C17.0656 17.346 17.2232 17.1875 17.3326 16.9969C17.4419 16.8063 17.499 16.5903 17.4983 16.3705C17.4975 16.1508 17.4388 15.9351 17.3281 15.7453ZM9.99995 18.875C9.61231 18.8749 9.23423 18.7546 8.91776 18.5308C8.60129 18.3069 8.36198 17.9905 8.23276 17.625H11.7671C11.6379 17.9905 11.3986 18.3069 11.0821 18.5308C10.7657 18.7546 10.3876 18.8749 9.99995 18.875ZM3.74995 16.375C4.35151 15.3406 4.99995 12.9438 4.99995 10.125C4.99995 8.79892 5.52673 7.52715 6.46442 6.58947C7.4021 5.65178 8.67387 5.125 9.99995 5.125C11.326 5.125 12.5978 5.65178 13.5355 6.58947C14.4732 7.52715 14.9999 8.79892 14.9999 10.125C14.9999 12.9414 15.6468 15.3383 16.2499 16.375H3.74995Z" fill="#222222"/>
<circle cx="19" cy="2" r="2" fill="#FFAC00"/>
</svg>
