<svg width="22" height="22" viewBox="0 0 22 22" fill="none" xmlns="http://www.w3.org/2000/svg">
<path d="M11 19.3105C14.866 19.3105 18 16.1765 18 12.3105C18 8.44455 14.866 5.31055 11 5.31055C7.13401 5.31055 4 8.44455 4 12.3105C4 16.1765 7.13401 19.3105 11 19.3105Z" fill="url(#paint0_linear_451_132)"/>
<path d="M11 9.31055C13.2091 9.31055 15 7.51969 15 5.31055C15 3.10141 13.2091 1.31055 11 1.31055C8.79086 1.31055 7 3.10141 7 5.31055C7 7.51969 8.79086 9.31055 11 9.31055Z" fill="url(#paint1_linear_451_132)"/>
<path d="M7 1.31055L9 3.31055" stroke="url(#paint2_linear_451_132)" stroke-width="2" stroke-linecap="round"/>
<path d="M15 1.31055L13 3.31055" stroke="url(#paint3_linear_451_132)" stroke-width="2" stroke-linecap="round"/>
<path d="M5 10.3105L1 8.31055" stroke="url(#paint4_linear_451_132)" stroke-width="2" stroke-linecap="round"/>
<path d="M5 14.3105L1 16.3105" stroke="url(#paint5_linear_451_132)" stroke-width="2" stroke-linecap="round"/>
<path d="M17 10.3105L21 8.31055" stroke="url(#paint6_linear_451_132)" stroke-width="2" stroke-linecap="round"/>
<path d="M17 14.3105L21 16.3105" stroke="url(#paint7_linear_451_132)" stroke-width="2" stroke-linecap="round"/>
<path opacity="0.7" d="M11 6.31055V20.3105" stroke="url(#paint8_linear_451_132)" stroke-width="2" stroke-linecap="round"/>
<defs>
<linearGradient id="paint0_linear_451_132" x1="11" y1="5.31055" x2="11" y2="19.3105" gradientUnits="userSpaceOnUse">
<stop stop-color="#12E0B0"/>
<stop offset="1" stop-color="#39A2FF"/>
</linearGradient>
<linearGradient id="paint1_linear_451_132" x1="11" y1="1.31055" x2="11" y2="9.31055" gradientUnits="userSpaceOnUse">
<stop stop-color="#12E0B0"/>
<stop offset="1" stop-color="#39A2FF"/>
</linearGradient>
<linearGradient id="paint2_linear_451_132" x1="8" y1="1.31055" x2="8" y2="3.31055" gradientUnits="userSpaceOnUse">
<stop stop-color="#12E0B0"/>
<stop offset="1" stop-color="#39A2FF"/>
</linearGradient>
<linearGradient id="paint3_linear_451_132" x1="14" y1="1.31055" x2="14" y2="3.31055" gradientUnits="userSpaceOnUse">
<stop stop-color="#12E0B0"/>
<stop offset="1" stop-color="#39A2FF"/>
</linearGradient>
<linearGradient id="paint4_linear_451_132" x1="3" y1="8.31055" x2="3" y2="10.3105" gradientUnits="userSpaceOnUse">
<stop stop-color="#12E0B0"/>
<stop offset="1" stop-color="#39A2FF"/>
</linearGradient>
<linearGradient id="paint5_linear_451_132" x1="3" y1="14.3105" x2="3" y2="16.3105" gradientUnits="userSpaceOnUse">
<stop stop-color="#12E0B0"/>
<stop offset="1" stop-color="#39A2FF"/>
</linearGradient>
<linearGradient id="paint6_linear_451_132" x1="19" y1="8.31055" x2="19" y2="10.3105" gradientUnits="userSpaceOnUse">
<stop stop-color="#12E0B0"/>
<stop offset="1" stop-color="#39A2FF"/>
</linearGradient>
<linearGradient id="paint7_linear_451_132" x1="19" y1="14.3105" x2="19" y2="16.3105" gradientUnits="userSpaceOnUse">
<stop stop-color="#12E0B0"/>
<stop offset="1" stop-color="#39A2FF"/>
</linearGradient>
<linearGradient id="paint8_linear_451_132" x1="11.5" y1="6.31055" x2="11.5" y2="20.3105" gradientUnits="userSpaceOnUse">
<stop stop-color="#12E0B0"/>
<stop offset="1" stop-color="#39A2FF"/>
</linearGradient>
</defs>
</svg>
