<svg width="29" height="27" viewBox="0 0 29 27" fill="none" xmlns="http://www.w3.org/2000/svg">
<path d="M17.5329 0.512389C18.0828 0.512345 18.6232 0.655991 19.1006 0.929094C19.5779 1.2022 19.9755 1.59528 20.2542 2.06939L21.396 4.01494H24.301C25.5098 4.01494 26.6691 4.49505 27.524 5.34969C28.3789 6.20432 28.8594 7.36351 28.8598 8.57233V21.898C28.8598 22.4967 28.7418 23.0895 28.5127 23.6426C28.2836 24.1957 27.9478 24.6983 27.5245 25.1216C27.1012 25.5449 26.5986 25.8807 26.0455 26.1098C25.4924 26.3389 24.8996 26.4568 24.301 26.4568H5.36446C4.15539 26.4568 2.99584 25.9765 2.1409 25.1216C1.28596 24.2666 0.805664 23.1071 0.805664 21.898V8.57233C0.805664 7.36326 1.28596 6.20372 2.1409 5.34878C2.99584 4.49384 4.15539 4.01354 5.36446 4.01354H8.28208L9.50945 2.01609C9.79166 1.55631 10.187 1.17654 10.6578 0.91305C11.1285 0.649556 11.659 0.511129 12.1984 0.510986H17.5329V0.512389ZM17.5329 2.61645H12.1984C12.0449 2.61657 11.8933 2.65029 11.7542 2.71523C11.6151 2.78017 11.4919 2.87476 11.3933 2.99237L11.3021 3.11861L9.76895 5.61543C9.67494 5.76878 9.54318 5.89546 9.38625 5.98337C9.22933 6.07129 9.05249 6.1175 8.87262 6.1176H5.36586C5.04338 6.11741 4.72403 6.18077 4.42604 6.30405C4.12806 6.42733 3.85728 6.60812 3.62919 6.83608C3.4011 7.06404 3.22016 7.33471 3.09671 7.63262C2.97326 7.93053 2.90972 8.24985 2.90972 8.57233V21.898C2.90972 23.253 4.00944 24.3528 5.36446 24.3528H24.301C24.952 24.3528 25.5764 24.0941 26.0367 23.6338C26.4971 23.1734 26.7557 22.5491 26.7557 21.898V8.57233C26.7557 7.92129 26.4971 7.29692 26.0367 6.83657C25.5764 6.37622 24.952 6.1176 24.301 6.1176H20.7942C20.6108 6.11769 20.4306 6.06985 20.2714 5.97881C20.1122 5.88777 19.9796 5.7567 19.8867 5.5986L18.4391 3.13404C18.3463 2.97614 18.2139 2.8452 18.0549 2.75418C17.896 2.66315 17.7161 2.61519 17.5329 2.61504V2.61645ZM14.8327 8.22165C16.5068 8.22165 18.1123 8.88669 19.2961 10.0704C20.4799 11.2542 21.1449 12.8597 21.1449 14.5338C21.1449 16.2079 20.4799 17.8134 19.2961 18.9972C18.1123 20.181 16.5068 20.846 14.8327 20.846C13.1586 20.846 11.5531 20.181 10.3693 18.9972C9.18557 17.8134 8.52054 16.2079 8.52054 14.5338C8.52054 12.8597 9.18557 11.2542 10.3693 10.0704C11.5531 8.88669 13.1586 8.22165 14.8327 8.22165V8.22165ZM14.8327 10.3257C14.2801 10.3257 13.7329 10.4346 13.2223 10.646C12.7118 10.8575 12.2479 11.1675 11.8571 11.5582C11.4664 11.949 11.1564 12.4129 10.9449 12.9235C10.7334 13.434 10.6246 13.9812 10.6246 14.5338C10.6246 15.0864 10.7334 15.6336 10.9449 16.1442C11.1564 16.6548 11.4664 17.1187 11.8571 17.5094C12.2479 17.9002 12.7118 18.2101 13.2223 18.4216C13.7329 18.6331 14.2801 18.7419 14.8327 18.7419C15.9488 18.7419 17.0191 18.2986 17.8083 17.5094C18.5975 16.7202 19.0408 15.6499 19.0408 14.5338C19.0408 13.4178 18.5975 12.3474 17.8083 11.5582C17.0191 10.7691 15.9488 10.3257 14.8327 10.3257V10.3257Z" fill="#959292"/>
</svg>
