<svg width="24" height="24" viewBox="0 0 24 24" fill="none" xmlns="http://www.w3.org/2000/svg">
<path d="M8 8C7.73478 8 7.48043 8.10536 7.29289 8.29289C7.10536 8.48043 7 8.73478 7 9C7 9.26522 6.89464 9.51957 6.70711 9.70711C6.51957 9.89464 6.26522 10 6 10C5.73478 10 5.48043 9.89464 5.29289 9.70711C5.10536 9.51957 5 9.26522 5 9C5 8.20435 5.31607 7.44129 5.87868 6.87868C6.44129 6.31607 7.20435 6 8 6C8.79565 6 9.55871 6.31607 10.1213 6.87868C10.6839 7.44129 11 8.20435 11 9C11 9.26522 10.8946 9.51957 10.7071 9.70711C10.5196 9.89464 10.2652 10 10 10C9.73478 10 9.48043 9.89464 9.29289 9.70711C9.10536 9.51957 9 9.26522 9 9C9 8.73478 8.89464 8.48043 8.70711 8.29289C8.51957 8.10536 8.26522 8 8 8ZM16 8C15.7348 8 15.4804 8.10536 15.2929 8.29289C15.1054 8.48043 15 8.73478 15 9C15 9.26522 14.8946 9.51957 14.7071 9.70711C14.5196 9.89464 14.2652 10 14 10C13.7348 10 13.4804 9.89464 13.2929 9.70711C13.1054 9.51957 13 9.26522 13 9C13 8.20435 13.3161 7.44129 13.8787 6.87868C14.4413 6.31607 15.2044 6 16 6C16.7956 6 17.5587 6.31607 18.1213 6.87868C18.6839 7.44129 19 8.20435 19 9C19 9.26522 18.8946 9.51957 18.7071 9.70711C18.5196 9.89464 18.2652 10 18 10C17.7348 10 17.4804 9.89464 17.2929 9.70711C17.1054 9.51957 17 9.26522 17 9C17 8.73478 16.8946 8.48043 16.7071 8.29289C16.5196 8.10536 16.2652 8 16 8ZM5.07 12C4.92686 12 4.7854 12.0308 4.65516 12.0902C4.52493 12.1496 4.40897 12.2362 4.31512 12.3443C4.22126 12.4524 4.15171 12.5794 4.11114 12.7166C4.07058 12.8539 4.05996 12.9983 4.08 13.14C4.35173 15.047 5.30237 16.7918 6.75731 18.0542C8.21224 19.3165 10.0738 20.0115 12 20.0115C13.9262 20.0115 15.7878 19.3165 17.2427 18.0542C18.6976 16.7918 19.6483 15.047 19.92 13.14C19.9401 12.9981 19.9294 12.8536 19.8887 12.7161C19.848 12.5787 19.7783 12.4517 19.6842 12.3436C19.5902 12.2354 19.4739 12.1488 19.3435 12.0896C19.213 12.0303 19.0713 11.9997 18.928 12H5.07ZM12 18C10.7588 18.0001 9.54815 17.6155 8.53456 16.8992C7.52096 16.1828 6.75427 15.17 6.34 14H17.66C17.2457 15.17 16.479 16.1828 15.4654 16.8992C14.4518 17.6155 13.2412 18.0001 12 18V18ZM24 12C24 10.4241 23.6896 8.86371 23.0866 7.4078C22.4835 5.95189 21.5996 4.62902 20.4853 3.51472C19.371 2.40042 18.0481 1.5165 16.5922 0.913446C15.1363 0.310389 13.5759 0 12 0C10.4241 0 8.86371 0.310389 7.4078 0.913446C5.95189 1.5165 4.62902 2.40042 3.51472 3.51472C2.40042 4.62902 1.5165 5.95189 0.913445 7.4078C0.310389 8.86371 -2.34822e-08 10.4241 0 12C4.74244e-08 15.1826 1.26428 18.2348 3.51472 20.4853C5.76516 22.7357 8.8174 24 12 24C15.1826 24 18.2348 22.7357 20.4853 20.4853C22.7357 18.2348 24 15.1826 24 12ZM2 12C2 9.34784 3.05357 6.8043 4.92893 4.92893C6.8043 3.05357 9.34784 2 12 2C14.6522 2 17.1957 3.05357 19.0711 4.92893C20.9464 6.8043 22 9.34784 22 12C22 14.6522 20.9464 17.1957 19.0711 19.0711C17.1957 20.9464 14.6522 22 12 22C9.34784 22 6.8043 20.9464 4.92893 19.0711C3.05357 17.1957 2 14.6522 2 12Z" fill="white"/>
</svg>
