<svg width="12" height="12" viewBox="0 0 12 12" fill="none" xmlns="http://www.w3.org/2000/svg">
<path d="M1.33333 0.75H10.6667C10.8214 0.75 10.9697 0.811458 11.0791 0.920854C11.1885 1.03025 11.25 1.17862 11.25 1.33333V2.2585C11.25 2.4132 11.1885 2.56155 11.0791 2.67092L7.33758 6.41242C7.22818 6.52179 7.1667 6.67013 7.16667 6.82483V10.5027C7.16666 10.5914 7.14645 10.6789 7.10755 10.7586C7.06866 10.8383 7.01211 10.9081 6.94221 10.9626C6.8723 11.0172 6.79088 11.0551 6.70414 11.0734C6.61739 11.0918 6.5276 11.0901 6.44158 11.0686L5.27492 10.7769C5.14877 10.7453 5.03681 10.6725 4.9568 10.57C4.87679 10.4674 4.83334 10.3411 4.83333 10.2111V6.82483C4.8333 6.67013 4.77182 6.52179 4.66242 6.41242L0.920917 2.67092C0.811513 2.56155 0.750033 2.4132 0.75 2.2585V1.33333C0.75 1.17862 0.811458 1.03025 0.920854 0.920854C1.03025 0.811458 1.17862 0.75 1.33333 0.75Z" stroke="#222222" stroke-linecap="round" stroke-linejoin="round"/>
</svg>
