<svg width="29" height="23" viewBox="0 0 29 23" fill="none" xmlns="http://www.w3.org/2000/svg">
<path d="M20.5 0.189453H8.5C4.08172 0.189453 0.5 3.77117 0.5 8.18945V12.1895C0.5 16.6077 4.08172 20.1895 8.5 20.1895H20.5C24.9183 20.1895 28.5 16.6077 28.5 12.1895V8.18945C28.5 3.77117 24.9183 0.189453 20.5 0.189453Z" fill="#08121A"/>
<path d="M10.5 20.1895L14.5 16.1895H18.5L12.5 22.1895L10.5 20.1895Z" fill="#08121A"/>
<path d="M13.6919 12.7349V12.6838C13.6976 12.1412 13.7544 11.7093 13.8624 11.3883C13.9703 11.0673 14.1238 10.8074 14.3226 10.6085C14.5215 10.4096 14.7601 10.2264 15.0385 10.0588C15.2061 9.9565 15.3567 9.83576 15.4902 9.69656C15.6238 9.55451 15.7289 9.39116 15.8056 9.2065C15.8851 9.02184 15.9249 8.81729 15.9249 8.59286C15.9249 8.31445 15.8596 8.07298 15.7289 7.86843C15.5982 7.66388 15.4235 7.50621 15.2047 7.39542C14.986 7.28462 14.7431 7.22923 14.476 7.22923C14.2431 7.22923 14.0186 7.27752 13.8027 7.37411C13.5868 7.4707 13.4064 7.62269 13.2615 7.83008C13.1167 8.03746 13.0328 8.30877 13.0101 8.644H11.9363C11.959 8.16104 12.084 7.74769 12.3113 7.40394C12.5414 7.06019 12.8439 6.79741 13.2189 6.61559C13.5968 6.43377 14.0158 6.34286 14.476 6.34286C14.976 6.34286 15.4107 6.44229 15.78 6.64116C16.1522 6.84002 16.4391 7.11275 16.6408 7.45934C16.8453 7.80593 16.9476 8.20082 16.9476 8.644C16.9476 8.9565 16.8993 9.23917 16.8027 9.49201C16.709 9.74485 16.5726 9.9707 16.3936 10.1696C16.2175 10.3684 16.0044 10.5446 15.7544 10.698C15.5044 10.8542 15.3042 11.019 15.1536 11.1923C15.003 11.3627 14.8936 11.5659 14.8255 11.8017C14.7573 12.0375 14.7203 12.3315 14.7147 12.6838V12.7349H13.6919ZM14.2374 15.2576C14.0272 15.2576 13.8468 15.1824 13.6962 15.0318C13.5456 14.8812 13.4703 14.7008 13.4703 14.4906C13.4703 14.2804 13.5456 14.1 13.6962 13.9494C13.8468 13.7988 14.0272 13.7235 14.2374 13.7235C14.4476 13.7235 14.628 13.7988 14.7786 13.9494C14.9292 14.1 15.0044 14.2804 15.0044 14.4906C15.0044 14.6298 14.9689 14.7576 14.8979 14.8741C14.8297 14.9906 14.7374 15.0843 14.6209 15.1554C14.5073 15.2235 14.3794 15.2576 14.2374 15.2576Z" fill="#08121A"/>
</svg>
