<svg width="33" height="32" viewBox="0 0 33 32" fill="none" xmlns="http://www.w3.org/2000/svg">
<path d="M16.396 32C25.2325 32 32.396 24.8366 32.396 16C32.396 7.16344 25.2325 0 16.396 0C7.55948 0 0.395996 7.16344 0.395996 16C0.395996 24.8366 7.55948 32 16.396 32Z" fill="url(#paint0_linear_228_13292)"/>
<path d="M16.396 32C25.2325 32 32.396 24.8366 32.396 16C32.396 7.16344 25.2325 0 16.396 0C7.55948 0 0.395996 7.16344 0.395996 16C0.395996 24.8366 7.55948 32 16.396 32Z" fill="url(#paint1_radial_228_13292)"/>
<path d="M11.71 26.3675L10.2137 9.4625C10.7562 9.2875 11.4387 9.1125 12.2612 8.9375C13.1012 8.745 14.02 8.5875 15.0175 8.465C16.015 8.3425 17.0212 8.28125 18.0362 8.28125C19.0162 8.28125 19.97 8.3775 20.8975 8.57C21.8425 8.7625 22.6825 9.08625 23.4175 9.54125C23.7325 10.4862 23.89 11.3875 23.89 12.245C23.89 13.6625 23.4787 14.905 22.6562 15.9725C21.8512 17.0225 20.775 17.9062 19.4275 18.6237C18.08 19.3237 16.5925 19.8575 14.965 20.225L14.335 26.105L11.71 26.3675ZM15.1487 18.44C16.3387 17.7925 17.2487 16.97 17.8787 15.9725C18.5087 14.9575 18.8237 13.9687 18.8237 13.0062C18.8237 12.3937 18.6837 11.825 18.4037 11.3C18.1412 10.7575 17.73 10.32 17.17 9.9875C16.995 9.9875 16.8025 10.005 16.5925 10.04C16.4 10.075 16.2075 10.1187 16.015 10.1712L15.1487 18.44Z" fill="white"/>
<defs>
<linearGradient id="paint0_linear_228_13292" x1="0.395996" y1="0" x2="32.396" y2="32" gradientUnits="userSpaceOnUse">
<stop stop-color="#12E0B0"/>
<stop offset="1" stop-color="#39A2FF"/>
</linearGradient>
<radialGradient id="paint1_radial_228_13292" cx="0" cy="0" r="1" gradientUnits="userSpaceOnUse" gradientTransform="translate(960.396 640) scale(2240)">
<stop stop-color="white" stop-opacity="0.25"/>
<stop offset="1" stop-color="white" stop-opacity="0"/>
</radialGradient>
</defs>
</svg>
