<svg width="14" height="18" viewBox="0 0 14 18" fill="none" xmlns="http://www.w3.org/2000/svg">
<path d="M2.83334 0.666992C2.17029 0.666992 1.53441 0.930384 1.06557 1.39923C0.596728 1.86807 0.333336 2.50395 0.333336 3.16699V14.8337C0.333336 15.4967 0.596728 16.1326 1.06557 16.6014C1.53441 17.0703 2.17029 17.3337 2.83334 17.3337H11.1667C11.8297 17.3337 12.4656 17.0703 12.9344 16.6014C13.4033 16.1326 13.6667 15.4967 13.6667 14.8337V14.0003C13.6667 13.5401 13.2936 13.167 12.8333 13.167C12.3731 13.167 12 13.5401 12 14.0003V14.8337C12 15.0547 11.9122 15.2666 11.7559 15.4229C11.5996 15.5792 11.3877 15.667 11.1667 15.667H2.83334C2.61232 15.667 2.40036 15.5792 2.24408 15.4229C2.0878 15.2666 2 15.0547 2 14.8337V3.16699C2 2.94598 2.0878 2.73402 2.24408 2.57774C2.40036 2.42146 2.61232 2.33366 2.83334 2.33366H11.1667C11.3877 2.33366 11.5996 2.42146 11.7559 2.57774C11.9122 2.73402 12 2.94598 12 3.16699V4.00033C12 4.46056 12.3731 4.83366 12.8333 4.83366C13.2936 4.83366 13.6667 4.46056 13.6667 4.00033V3.16699C13.6667 2.50395 13.4033 1.86807 12.9344 1.39923C12.4656 0.930384 11.8297 0.666992 11.1667 0.666992H2.83334Z" fill="#AD2A2B"/>
<path d="M10.9226 5.91107C10.5972 5.58563 10.0695 5.58563 9.74408 5.91107C9.41864 6.23651 9.41864 6.76414 9.74408 7.08958L10.8215 8.16699H7C6.53977 8.16699 6.16667 8.54009 6.16667 9.00033C6.16667 9.46056 6.53977 9.83366 7 9.83366H10.8215L9.74408 10.9111C9.41864 11.2365 9.41864 11.7641 9.74408 12.0896C10.0695 12.415 10.5972 12.415 10.9226 12.0896L13.4226 9.58958C13.748 9.26414 13.748 8.73651 13.4226 8.41107L10.9226 5.91107Z" fill="#AD2A2B"/>
</svg>
