<svg width="16" height="16" viewBox="0 0 16 16" fill="none" xmlns="http://www.w3.org/2000/svg">
<path d="M14.35 14.3559C14.2566 14.4478 14.131 14.4994 14 14.4996C13.8672 14.499 13.7397 14.4476 13.6437 14.3559L10.9437 11.6496C9.80659 12.6047 8.34462 13.084 6.86273 12.9874C5.38083 12.8908 3.99343 12.2259 2.98988 11.1313C1.98633 10.0366 1.44412 8.59681 1.47633 7.11212C1.50855 5.62743 2.11269 4.21249 3.16277 3.16241C4.21286 2.11233 5.62779 1.50818 7.11248 1.47597C8.59717 1.44375 10.037 1.98596 11.1316 2.98951C12.2263 3.99306 12.8912 5.38046 12.9878 6.86236C13.0844 8.34426 12.6051 9.80623 11.65 10.9434L14.35 13.6434C14.3972 13.6899 14.4347 13.7453 14.4603 13.8065C14.486 13.8677 14.4991 13.9333 14.4991 13.9996C14.4991 14.0659 14.486 14.1316 14.4603 14.1927C14.4347 14.2539 14.3972 14.3093 14.35 14.3559ZM7.24997 11.9996C8.18944 11.9996 9.1078 11.721 9.88893 11.1991C10.6701 10.6772 11.2789 9.9353 11.6384 9.06736C11.9979 8.19941 12.092 7.24434 11.9087 6.32293C11.7254 5.40152 11.273 4.55515 10.6087 3.89085C9.94443 3.22655 9.09806 2.77416 8.17665 2.59088C7.25524 2.4076 6.30018 2.50166 5.43223 2.86118C4.56428 3.2207 3.82243 3.82952 3.30049 4.61065C2.77856 5.39178 2.49997 6.31015 2.49997 7.24961C2.50163 8.50888 3.0026 9.7161 3.89304 10.6065C4.78348 11.497 5.9907 11.998 7.24997 11.9996Z" fill="#222222" fill-opacity="0.5"/>
</svg>
