<svg width="14" height="10" viewBox="0 0 14 10" fill="none" xmlns="http://www.w3.org/2000/svg">
<g filter="url(#filter0_f_1_465)">
<path d="M10.9756 3.14239C10.9756 3.59409 10.8829 4.04137 10.7029 4.45868C10.5228 4.876 10.2589 5.25518 9.92621 5.57458C9.59351 5.89398 9.19853 6.14734 8.76383 6.3202C8.32913 6.49306 7.86323 6.58203 7.39272 6.58203C6.9222 6.58203 6.4563 6.49306 6.0216 6.3202C5.5869 6.14734 5.19192 5.89398 4.85922 5.57458C4.52652 5.25518 4.2626 4.876 4.08255 4.45868C3.90249 4.04137 3.80981 3.59409 3.80981 3.14239L5.35651 3.14239C5.35651 3.3991 5.40918 3.65329 5.51151 3.89046C5.61384 4.12762 5.76382 4.34312 5.9529 4.52463C6.14198 4.70615 6.36645 4.85014 6.61349 4.94838C6.86054 5.04661 7.12532 5.09718 7.39272 5.09718C7.66011 5.09718 7.92489 5.04661 8.17194 4.94838C8.41898 4.85014 8.64345 4.70615 8.83253 4.52463C9.02161 4.34312 9.17159 4.12762 9.27392 3.89046C9.37625 3.65329 9.42892 3.3991 9.42892 3.14239L10.9756 3.14239Z" fill="url(#paint0_linear_1_465)" fill-opacity="0.3"/>
</g>
<defs>
<filter id="filter0_f_1_465" x="0.809814" y="0.142395" width="13.1658" height="9.43964" filterUnits="userSpaceOnUse" color-interpolation-filters="sRGB">
<feFlood flood-opacity="0" result="BackgroundImageFix"/>
<feBlend mode="normal" in="SourceGraphic" in2="BackgroundImageFix" result="shape"/>
<feGaussianBlur stdDeviation="1.5" result="effect1_foregroundBlur_1_465"/>
</filter>
<linearGradient id="paint0_linear_1_465" x1="7.39272" y1="-0.297241" x2="7.39272" y2="6.58203" gradientUnits="userSpaceOnUse">
<stop offset="0.34375" stop-color="#6D4767" stop-opacity="0"/>
<stop offset="1" stop-color="#6D4767"/>
</linearGradient>
</defs>
</svg>
