<svg width="545" height="280" viewBox="0 0 545 280" fill="none" xmlns="http://www.w3.org/2000/svg">
<path d="M0 96C0 50.7452 0 28.1177 14.0589 14.0589C28.1177 0 50.7452 0 96 0H449C494.255 0 516.882 0 530.941 14.0589C545 28.1177 545 50.7452 545 96V184C545 229.255 545 251.882 530.941 265.941C516.882 280 494.255 280 449 280H96C50.7452 280 28.1177 280 14.0589 265.941C0 251.882 0 229.255 0 184V96Z" fill="url(#paint0_linear_91_756)"/>
<defs>
<linearGradient id="paint0_linear_91_756" x1="272.5" y1="0" x2="272.5" y2="280" gradientUnits="userSpaceOnUse">
<stop stop-color="#5FA376"/>
<stop offset="1" stop-color="#0A0C0B"/>
</linearGradient>
</defs>
</svg>
