<svg width="343" height="178" viewBox="0 0 343 178" fill="none" xmlns="http://www.w3.org/2000/svg">
<path d="M0 48C0 25.3726 0 14.0589 7.02944 7.02944C14.0589 0 25.3726 0 48 0H295C317.627 0 328.941 0 335.971 7.02944C343 14.0589 343 25.3726 343 48V130C343 152.627 343 163.941 335.971 170.971C328.941 178 317.627 178 295 178H48C25.3726 178 14.0589 178 7.02944 170.971C0 163.941 0 152.627 0 130V48Z" fill="url(#paint0_linear_91_1309)"/>
<defs>
<linearGradient id="paint0_linear_91_1309" x1="171.5" y1="0" x2="171.5" y2="178" gradientUnits="userSpaceOnUse">
<stop stop-color="#2F3733"/>
<stop offset="1" stop-color="#0A0C0B"/>
</linearGradient>
</defs>
</svg>
