<svg width="440" height="227" viewBox="0 0 440 227" fill="none" xmlns="http://www.w3.org/2000/svg">
<path d="M0 56.8437C0 30.4451 0 17.2458 8.20101 9.04476C16.402 0.84375 29.6013 0.84375 56 0.84375H384C410.399 0.84375 423.598 0.84375 431.799 9.04476C440 17.2458 440 30.4451 440 56.8437V170.899C440 197.297 440 210.497 431.799 218.698C423.598 226.899 410.399 226.899 384 226.899H56C29.6013 226.899 16.402 226.899 8.20101 218.698C0 210.497 0 197.297 0 170.899V56.8437Z" fill="url(#paint0_linear_89_241)"/>
<defs>
<linearGradient id="paint0_linear_89_241" x1="220" y1="0.84375" x2="220" y2="226.899" gradientUnits="userSpaceOnUse">
<stop stop-color="#5FA376"/>
<stop offset="1" stop-color="#0A0C0B"/>
</linearGradient>
</defs>
</svg>
