<svg width="24" height="24" viewBox="0 0 24 24" fill="none" xmlns="http://www.w3.org/2000/svg">
<g clip-path="url(#clip0_91_504)">
<path d="M2.13002 13.272C2.56644 14.2989 3.20084 15.2298 3.99702 16.0115C4.79319 16.7932 5.73554 17.4105 6.77026 17.828C7.80499 18.2455 8.91181 18.4552 10.0276 18.445C11.1433 18.4347 12.2461 18.2049 13.273 17.7684C14.2999 17.332 15.2308 16.6976 16.0125 15.9014C16.7942 15.1052 17.4114 14.1629 17.829 13.1282C18.2465 12.0935 18.4561 10.9866 18.4459 9.87088C18.4357 8.75514 18.2058 7.65234 17.7694 6.62545C17.333 5.59855 16.6985 4.66767 15.9024 3.88595C15.1062 3.10423 14.1639 2.48698 13.1291 2.06945C12.0944 1.65192 10.9876 1.44228 9.87184 1.45251C8.7561 1.46273 7.6533 1.69261 6.6264 2.12903C5.59951 2.56545 4.66863 3.19986 3.88691 3.99604C3.10519 4.79222 2.48795 5.73457 2.07042 6.76929C1.65289 7.80401 1.44326 8.91084 1.45348 10.0266C1.46371 11.1423 1.6936 12.2451 2.13002 13.272Z" stroke="white" stroke-width="2" stroke-linecap="round" stroke-linejoin="round"/>
<path d="M15.957 15.9561L22.5467 22.5467" stroke="white" stroke-width="2" stroke-linecap="round" stroke-linejoin="round"/>
</g>
<defs>
<clipPath id="clip0_91_504">
<rect width="24" height="24" fill="white"/>
</clipPath>
</defs>
</svg>
