<svg width="33" height="32" viewBox="0 0 33 32" fill="none" xmlns="http://www.w3.org/2000/svg">
<path d="M16.9307 32C25.7672 32 32.9307 24.8366 32.9307 16C32.9307 7.16344 25.7672 0 16.9307 0C8.09414 0 0.930664 7.16344 0.930664 16C0.930664 24.8366 8.09414 32 16.9307 32Z" fill="url(#paint0_linear_1_2447)"/>
<path d="M16.9307 32C25.7672 32 32.9307 24.8366 32.9307 16C32.9307 7.16344 25.7672 0 16.9307 0C8.09414 0 0.930664 7.16344 0.930664 16C0.930664 24.8366 8.09414 32 16.9307 32Z" fill="url(#paint1_radial_1_2447)"/>
<path d="M12.2447 26.3675L10.7484 9.4625C11.2909 9.2875 11.9734 9.1125 12.7959 8.9375C13.6359 8.745 14.5547 8.5875 15.5522 8.465C16.5497 8.3425 17.5559 8.28125 18.5709 8.28125C19.5509 8.28125 20.5047 8.3775 21.4322 8.57C22.3772 8.7625 23.2172 9.08625 23.9522 9.54125C24.2672 10.4862 24.4247 11.3875 24.4247 12.245C24.4247 13.6625 24.0134 14.905 23.1909 15.9725C22.3859 17.0225 21.3097 17.9062 19.9622 18.6237C18.6147 19.3237 17.1272 19.8575 15.4997 20.225L14.8697 26.105L12.2447 26.3675ZM15.6834 18.44C16.8734 17.7925 17.7834 16.97 18.4134 15.9725C19.0434 14.9575 19.3584 13.9687 19.3584 13.0062C19.3584 12.3937 19.2184 11.825 18.9384 11.3C18.6759 10.7575 18.2647 10.32 17.7047 9.9875C17.5297 9.9875 17.3372 10.005 17.1272 10.04C16.9347 10.075 16.7422 10.1187 16.5497 10.1712L15.6834 18.44Z" fill="white"/>
<defs>
<linearGradient id="paint0_linear_1_2447" x1="0.930664" y1="0" x2="32.9307" y2="32" gradientUnits="userSpaceOnUse">
<stop stop-color="#12E0B0"/>
<stop offset="1" stop-color="#39A2FF"/>
</linearGradient>
<radialGradient id="paint1_radial_1_2447" cx="0" cy="0" r="1" gradientUnits="userSpaceOnUse" gradientTransform="translate(960.931 640) scale(2240)">
<stop stop-color="white" stop-opacity="0.25"/>
<stop offset="1" stop-color="white" stop-opacity="0"/>
</radialGradient>
</defs>
</svg>
